<?xml version="1.0" encoding="UTF-8"?>
<!-- Generator: visioncortex VTracer 0.6.3 -->
<svg version="1.1" xmlns="http://www.w3.org/2000/svg" width="1280" height="1280">
<path d="M0 0 C422.4 0 844.8 0 1280 0 C1280 422.4 1280 844.8 1280 1280 C857.6 1280 435.2 1280 0 1280 C0 857.6 0 435.2 0 0 Z " fill="#FCFDFF" transform="translate(0,0)"/>
<path d="M0 0 C15.09 11.83 26.12 28.99 29.26 48.06 C31.83 69.66 29.6 92 15.97 109.66 C1.73 126.53 -13.17 135.85 -35.45 138.52 C-59.5 139.97 -78.59 133.13 -96.87 117.44 C-111.34 103.94 -117.28 84.57 -118.41 65.3 C-118.53 53.26 -116.14 42.63 -111.45 31.52 C-110.87 30.17 -110.87 30.17 -110.29 28.78 C-107.28 22.25 -103.07 16.99 -98.45 11.52 C-97.81 10.69 -97.18 9.86 -96.54 9 C-73.22 -18.67 -28.03 -20.78 0 0 Z " fill="#020305" transform="translate(664.4453125,508.4765625)"/>
<path d="M0 0 C2.91 2.91 5.58 6 8.19 9.19 C8.79 8.6 9.4 8 10.02 7.39 C18.21 -0.33 27.35 -6.71 38.96 -6.84 C48.97 -6.33 58.07 -3.91 65.46 3.12 C71.14 9.93 73.32 17.18 73.3 25.88 C73.3 26.55 73.3 27.21 73.3 27.9 C73.3 30.08 73.29 32.27 73.29 34.45 C73.28 35.97 73.28 37.49 73.28 39.01 C73.28 43 73.27 46.99 73.26 50.98 C73.25 55.06 73.24 59.14 73.24 63.21 C73.23 71.2 73.21 79.2 73.19 87.19 C68.93 87.21 64.68 87.23 60.43 87.24 C58.98 87.25 57.53 87.25 56.08 87.26 C54 87.28 51.93 87.28 49.85 87.29 C48.6 87.29 47.34 87.3 46.05 87.3 C43.19 87.19 43.19 87.19 42.19 86.19 C42.08 84.57 42.04 82.95 42.03 81.34 C42.02 80.3 42.01 79.27 42 78.2 C41.99 77.07 41.98 75.94 41.98 74.78 C41.95 72.4 41.92 70.03 41.89 67.65 C41.85 63.89 41.81 60.14 41.79 56.38 C41.76 52.76 41.71 49.14 41.66 45.53 C41.66 44.41 41.66 43.3 41.65 42.15 C41.54 34.84 40.85 28.93 36.5 22.81 C32.47 19.98 28.65 18.84 23.81 19.53 C19.6 20.7 17.57 21.74 14.69 25.12 C12.56 29.46 12.06 32.88 11.98 37.69 C11.96 38.79 11.94 39.89 11.92 41.03 C11.91 42.21 11.89 43.39 11.87 44.61 C11.84 46.43 11.84 46.43 11.81 48.29 C11.74 52.17 11.68 56.06 11.62 59.94 C11.58 62.57 11.54 65.2 11.49 67.83 C11.39 74.28 11.29 80.74 11.19 87.19 C6.93 87.21 2.68 87.23 -1.57 87.24 C-3.02 87.25 -4.47 87.25 -5.92 87.26 C-8 87.28 -10.07 87.28 -12.15 87.29 C-13.4 87.29 -14.66 87.3 -15.95 87.3 C-18.81 87.19 -18.81 87.19 -19.81 86.19 C-19.92 84.61 -19.96 83.03 -19.97 81.44 C-19.98 80.43 -19.99 79.42 -20 78.38 C-20.01 77.27 -20.02 76.17 -20.02 75.03 C-20.05 72.71 -20.08 70.38 -20.11 68.05 C-20.15 64.38 -20.19 60.7 -20.21 57.03 C-20.24 53.49 -20.29 49.95 -20.34 46.41 C-20.34 45.32 -20.34 44.23 -20.35 43.11 C-20.47 35.12 -21.83 28.19 -25.81 21.19 C-30.61 19.02 -35.65 18.78 -40.69 20.19 C-44.92 21.87 -46.79 24.06 -48.81 28.19 C-49.82 31.38 -49.96 34.35 -50.02 37.69 C-50.04 38.79 -50.06 39.89 -50.08 41.03 C-50.09 42.21 -50.11 43.39 -50.13 44.61 C-50.15 45.82 -50.17 47.04 -50.19 48.29 C-50.26 52.17 -50.32 56.06 -50.38 59.94 C-50.42 62.57 -50.46 65.2 -50.51 67.83 C-50.61 74.28 -50.71 80.74 -50.81 87.19 C-55.05 87.24 -59.28 87.27 -63.52 87.3 C-64.96 87.31 -66.4 87.32 -67.84 87.34 C-69.91 87.36 -71.98 87.37 -74.05 87.38 C-75.92 87.4 -75.92 87.4 -77.83 87.41 C-80.81 87.19 -80.81 87.19 -82.81 85.19 C-83.01 82.43 -83.09 79.77 -83.07 77.01 C-83.07 76.16 -83.08 75.31 -83.08 74.44 C-83.09 71.64 -83.08 68.84 -83.08 66.03 C-83.08 64.09 -83.08 62.15 -83.08 60.2 C-83.09 56.13 -83.08 52.05 -83.07 47.98 C-83.06 42.74 -83.07 37.51 -83.08 32.28 C-83.09 28.27 -83.09 24.25 -83.08 20.24 C-83.08 18.31 -83.08 16.38 -83.09 14.45 C-83.09 11.76 -83.08 9.06 -83.07 6.37 C-83.08 5.57 -83.08 4.76 -83.08 3.94 C-83.04 -1.58 -83.04 -1.58 -80.81 -3.81 C-77.92 -4.04 -77.92 -4.04 -74.27 -4.01 C-72.32 -4 -72.32 -4 -70.33 -3.99 C-68.95 -3.97 -67.57 -3.95 -66.19 -3.94 C-64.8 -3.93 -63.41 -3.92 -62.02 -3.91 C-58.62 -3.89 -55.22 -3.85 -51.81 -3.81 C-50.33 0.15 -50.33 0.15 -48.81 4.19 C-47.99 3.61 -47.99 3.61 -47.16 3.02 C-32.14 -7.36 -16.33 -10.52 0 0 Z " fill="#020305" transform="translate(330.8125,556.8125)"/>
<path d="M0 0 C0.93 0.4 1.85 0.8 2.8 1.22 C5 3 5 3 6.14 5.98 C6.56 11.62 3.29 16.55 0.75 21.38 C0.25 22.38 -0.26 23.39 -0.78 24.43 C-4.59 31.86 -4.59 31.86 -8 33 C-10.67 32.07 -10.67 32.07 -13.75 30.69 C-25.94 25.23 -39.68 23.57 -52.62 27.69 C-65.97 32.97 -73.75 39.79 -80.34 52.6 C-84.37 62.07 -84.6 73.24 -81.38 83 C-76.01 95.55 -66.44 102.95 -54 108 C-38.25 112.74 -21.51 110.2 -7 103 C-1.68 112.13 3.26 121.09 7 131 C-8.07 143.66 -29.77 145.13 -48.68 143.73 C-70.47 141.33 -89.55 130.66 -104.31 114.62 C-115.35 100.65 -122.7 83.1 -121 65 C-118.4 43.52 -108.79 24.08 -92 10 C-64.72 -9.8 -30.94 -14.13 0 0 Z " fill="#020305" transform="translate(129,503)"/>
<path d="M0 0 C1.62 2.28 1.62 2.28 1.61 5.56 C0.49 9.75 -1.12 13.1 -3.26 16.84 C-3.96 18.12 -4.67 19.39 -5.38 20.66 C-5.88 21.57 -5.88 21.57 -6.4 22.49 C-7.81 25.05 -9.1 27.66 -10.38 30.28 C-13.49 29.27 -16.55 28.22 -19.58 26.99 C-32.49 22.05 -46.59 20.77 -59.68 26.03 C-61.02 26.65 -61.02 26.65 -62.38 27.28 C-63.81 27.9 -63.81 27.9 -65.27 28.53 C-76.27 33.82 -82.36 42.98 -86.38 54.28 C-89.69 65.16 -88.19 75.07 -83.38 85.28 C-77.11 95.78 -67.33 102.59 -55.66 106.1 C-40.71 109.23 -24.88 107.55 -11.38 100.28 C-9.78 103.32 -8.17 106.36 -6.57 109.41 C-6.12 110.26 -5.67 111.12 -5.2 112 C-4.32 113.67 -3.44 115.35 -2.57 117.02 C-1.58 118.9 -0.55 120.75 0.5 122.59 C1.62 125.28 1.62 125.28 1.62 127.96 C-0.17 132.1 -3.8 133.05 -7.72 134.86 C-30.35 143.64 -56.03 144.08 -78.38 134.28 C-94.99 126.26 -108.62 114.63 -117.38 98.28 C-117.71 97.69 -118.03 97.11 -118.36 96.5 C-120.95 91.63 -122.5 86.92 -123.63 81.53 C-123.8 80.74 -123.97 79.95 -124.14 79.14 C-127.77 61.08 -123.58 42.57 -113.63 27.09 C-109.64 21.41 -105.25 16.23 -100.38 11.28 C-99.86 10.74 -99.33 10.2 -98.79 9.64 C-90.59 1.99 -79.07 -4.47 -68.38 -7.72 C-67.41 -8.02 -66.44 -8.31 -65.43 -8.62 C-45.28 -13.82 -17.44 -12.58 0 0 Z " fill="#020305" transform="translate(967.3828125,505.71875)"/>
<path d="M0 0 C0.99 0.5 0.99 0.5 2 1 C1.96 0.22 1.92 -0.57 1.88 -1.38 C2 -4 2 -4 4 -6 C6.78 -6.24 6.78 -6.24 10.29 -6.23 C11.54 -6.23 12.79 -6.23 14.08 -6.22 C16.05 -6.21 16.05 -6.21 18.06 -6.19 C20.04 -6.19 20.04 -6.19 22.06 -6.19 C31.86 -6.14 31.86 -6.14 33 -5 C33.1 -2.2 33.13 0.58 33.11 3.38 C33.11 4.25 33.11 5.13 33.11 6.04 C33.11 8.95 33.11 11.87 33.1 14.79 C33.1 16.8 33.09 18.82 33.09 20.83 C33.09 26.15 33.08 31.47 33.07 36.79 C33.06 42.21 33.05 47.63 33.05 53.06 C33.04 63.7 33.02 74.35 33 85 C23.1 85 13.2 85 3 85 C2.01 81.53 2.01 81.53 1 78 C0.35 78.47 -0.31 78.94 -0.98 79.43 C-12.08 87 -22.93 89.37 -36.19 87.57 C-47.75 85.37 -57.76 79.35 -65 70 C-73.3 56.14 -75.7 42.43 -72.06 26.64 C-68.68 15.06 -62.15 4.12 -51.56 -2.17 C-34.1 -11.67 -16.63 -11.26 0 0 Z " fill="#020305" transform="translate(1150,559)"/>
<path d="M0 0 C1.8 0.01 1.8 0.01 3.63 0.01 C4.93 0.01 6.23 0.02 7.56 0.02 C8.24 0.02 8.92 0.03 9.61 0.04 C11.68 0.06 13.76 0.06 15.83 0.06 C25.99 0.1 25.99 0.1 27.13 1.24 C27.25 3.36 27.3 5.48 27.33 7.6 C27.34 8.26 27.35 8.93 27.36 9.61 C27.39 11.81 27.42 14.01 27.44 16.22 C27.46 17.74 27.48 19.26 27.51 20.79 C27.56 24.8 27.61 28.82 27.66 32.83 C27.71 36.93 27.76 41.02 27.82 45.12 C27.93 53.16 28.03 61.2 28.13 69.24 C30.89 69.24 32.01 68.03 34.25 66.43 C43.95 59.81 52.65 58.6 64.13 60.24 C75.48 63 83.07 66.95 89.68 76.65 C92.55 81.8 93.38 86.3 93.35 92.17 C93.35 92.83 93.35 93.49 93.35 94.18 C93.35 96.35 93.34 98.53 93.32 100.7 C93.32 102.22 93.32 103.74 93.31 105.25 C93.31 109.23 93.29 113.2 93.26 117.18 C93.24 121.24 93.23 125.3 93.22 129.36 C93.2 137.32 93.17 145.28 93.13 153.24 C88.87 153.27 84.62 153.29 80.36 153.3 C78.92 153.3 77.47 153.31 76.02 153.32 C73.94 153.33 71.86 153.34 69.79 153.34 C68.54 153.35 67.28 153.35 65.99 153.36 C63.13 153.24 63.13 153.24 62.13 152.24 C62.02 150.62 61.98 149 61.97 147.38 C61.96 146.34 61.95 145.3 61.94 144.23 C61.93 143.1 61.92 141.96 61.92 140.8 C61.89 138.42 61.86 136.04 61.83 133.66 C61.79 129.89 61.75 126.13 61.73 122.36 C61.7 118.73 61.65 115.11 61.6 111.49 C61.6 110.37 61.6 109.25 61.59 108.09 C61.5 102.01 61 97.62 58.13 92.24 C57.67 91.31 57.22 90.39 56.75 89.43 C54.71 86.69 53.43 86.07 50.13 85.24 C44.51 84.47 40.58 86.03 35.56 88.27 C31.16 91.84 28.57 96.53 27.65 102.14 C27.46 105.41 27.41 108.65 27.42 111.93 C27.4 113.12 27.39 114.31 27.37 115.53 C27.33 119.29 27.32 123.05 27.31 126.81 C27.29 129.37 27.27 131.93 27.24 134.49 C27.18 140.74 27.14 146.99 27.13 153.24 C22.73 153.27 18.33 153.29 13.94 153.3 C12.44 153.3 10.94 153.31 9.45 153.32 C7.3 153.33 5.15 153.34 3.01 153.34 C1.71 153.35 0.42 153.35 -0.91 153.36 C-3.87 153.24 -3.87 153.24 -4.87 152.24 C-4.97 150.31 -5 148.38 -5.01 146.44 C-5.01 145.18 -5.02 143.92 -5.02 142.62 C-5.02 141.21 -5.02 139.8 -5.02 138.39 C-5.02 136.92 -5.02 135.44 -5.03 133.97 C-5.04 129.95 -5.04 125.93 -5.04 121.92 C-5.04 118.57 -5.05 115.22 -5.05 111.88 C-5.06 103.98 -5.06 96.09 -5.06 88.19 C-5.06 80.03 -5.07 71.88 -5.08 63.72 C-5.1 56.73 -5.1 49.74 -5.1 42.75 C-5.1 38.56 -5.1 34.38 -5.12 30.2 C-5.12 26.27 -5.13 22.34 -5.12 18.41 C-5.12 16.97 -5.12 15.52 -5.13 14.07 C-5.13 12.11 -5.13 10.14 -5.12 8.17 C-5.12 7.07 -5.12 5.97 -5.12 4.83 C-4.76 1.03 -3.76 0.32 0 0 Z " fill="#020305" transform="translate(978.873291015625,490.757080078125)"/>
<path d="M0 0 C10.42 8.66 18.09 19.04 19.6 32.84 C20.37 46.47 18.34 58.29 9.71 69.3 C5.75 73.55 1.29 76.74 -3.62 79.81 C-4.27 80.23 -4.91 80.65 -5.58 81.09 C-19.31 89.03 -37.82 88.15 -52.79 84.85 C-64.57 81.66 -76.88 74.27 -83.62 63.81 C-89.37 52.12 -92.01 39.43 -88.5 26.56 C-83.4 12.29 -74.91 2.96 -61.62 -4.19 C-42.25 -12.98 -17.61 -12.99 0 0 Z " fill="#020305" transform="translate(223.625,560.1875)"/>
<path d="M0 0 C7.83 7.21 13.52 16.66 14.79 27.25 C14.79 32.2 14.79 37.15 14.79 42.25 C-6.33 42.58 -27.45 42.91 -49.21 43.25 C-50.57 47.33 -49.8 50.31 -48.21 54.25 C-46.5 55.7 -46.5 55.7 -44.21 56.25 C-43.22 56.77 -42.23 57.29 -41.21 57.82 C-34.32 61.12 -26.61 61.16 -19.27 59.16 C-15.07 57.31 -11.66 54.24 -8.21 51.25 C-5.08 52.71 -1.96 54.17 1.16 55.63 C2.05 56.04 2.94 56.45 3.86 56.88 C4.71 57.28 5.56 57.68 6.44 58.09 C7.22 58.46 8.01 58.82 8.82 59.2 C10.79 60.25 10.79 60.25 12.79 62.25 C12.52 68.08 8.72 71.01 4.71 74.82 C-7.29 84.82 -23.93 87.62 -39.21 86.25 C-53.59 84.22 -65.93 77.49 -75.21 66.25 C-83.08 54.82 -85.45 42.84 -83.21 29.25 C-79.91 16.01 -71.98 4.38 -60.46 -2.93 C-41.32 -13.83 -17.73 -14.01 0 0 Z " fill="#020305" transform="translate(492.2109375,560.74609375)"/>
<path d="M0 0 C6.4 5.64 11.24 12.97 11.87 21.62 C11.86 22.81 11.86 24 11.85 25.24 C11.85 25.9 11.85 26.56 11.85 27.25 C11.85 29.42 11.84 31.6 11.82 33.77 C11.82 35.29 11.81 36.81 11.81 38.32 C11.8 42.3 11.78 46.27 11.76 50.25 C11.74 54.31 11.73 58.37 11.72 62.43 C11.7 70.39 11.67 78.35 11.62 86.31 C7.37 86.34 3.12 86.36 -1.14 86.37 C-2.59 86.37 -4.03 86.38 -5.48 86.39 C-7.56 86.4 -9.64 86.41 -11.71 86.41 C-12.97 86.42 -14.22 86.42 -15.51 86.43 C-18.38 86.31 -18.38 86.31 -19.38 85.31 C-19.48 83.7 -19.52 82.08 -19.53 80.46 C-19.54 79.43 -19.55 78.39 -19.56 77.32 C-19.57 76.19 -19.58 75.07 -19.59 73.9 C-19.61 71.53 -19.64 69.15 -19.67 66.78 C-19.71 63.02 -19.75 59.26 -19.78 55.51 C-19.8 51.89 -19.85 48.27 -19.9 44.65 C-19.9 43.54 -19.9 42.42 -19.91 41.27 C-20.03 33.53 -20.69 27.47 -25.88 21.38 C-29.93 18.03 -33.24 17.82 -38.38 18.31 C-45.28 20.52 -48.88 23.24 -52.3 29.59 C-54.28 34.61 -54.1 39.67 -54.08 45 C-54.1 46.19 -54.11 47.38 -54.13 48.6 C-54.17 52.36 -54.18 56.12 -54.19 59.88 C-54.21 62.44 -54.24 65 -54.26 67.56 C-54.33 73.81 -54.36 80.06 -54.38 86.31 C-58.77 86.34 -63.17 86.36 -67.56 86.37 C-69.06 86.37 -70.56 86.38 -72.05 86.39 C-74.2 86.4 -76.35 86.41 -78.5 86.41 C-80.44 86.42 -80.44 86.42 -82.42 86.43 C-85.38 86.31 -85.38 86.31 -86.38 85.31 C-86.48 82.58 -86.52 79.88 -86.52 77.15 C-86.52 76.3 -86.53 75.44 -86.53 74.56 C-86.54 71.72 -86.54 68.88 -86.54 66.04 C-86.55 64.07 -86.55 62.1 -86.55 60.13 C-86.56 56.01 -86.56 51.88 -86.56 47.75 C-86.56 42.45 -86.57 37.15 -86.59 31.85 C-86.6 27.78 -86.6 23.72 -86.6 19.66 C-86.6 17.7 -86.61 15.75 -86.62 13.79 C-86.63 11.06 -86.62 8.33 -86.62 5.6 C-86.62 4.79 -86.63 3.97 -86.63 3.13 C-86.6 -2.46 -86.6 -2.46 -84.38 -4.69 C-81.49 -4.91 -81.49 -4.91 -77.84 -4.88 C-75.88 -4.87 -75.88 -4.87 -73.89 -4.86 C-72.51 -4.85 -71.13 -4.83 -69.75 -4.81 C-68.36 -4.8 -66.97 -4.79 -65.59 -4.79 C-62.18 -4.76 -58.78 -4.73 -55.38 -4.69 C-53.89 -0.73 -53.89 -0.73 -52.38 3.31 C-51.75 2.84 -51.12 2.37 -50.47 1.89 C-45.22 -1.93 -40.58 -4.76 -34.38 -6.69 C-33.77 -6.88 -33.17 -7.07 -32.55 -7.27 C-21.07 -9.49 -10.06 -5.03 0 0 Z " fill="#020305" transform="translate(786.375,557.6875)"/>
<path d="M0 0 C1.05 0.54 2.1 1.07 3.19 1.62 C11.95 9.02 18.24 20.99 19.21 32.44 C19.3 35.07 19.33 37.68 19.31 40.31 C19.31 41.24 19.3 42.17 19.3 43.13 C19.08 55.22 16.17 65.16 7.93 74.3 C0.45 81.45 -7.22 83.57 -17.44 83.44 C-18.69 83.43 -18.69 83.43 -19.96 83.41 C-31.66 83.1 -40.23 78.19 -48.25 69.81 C-57.11 58.99 -56.7 44.16 -56 31 C-54.71 20.94 -48.36 9.23 -40.5 2.81 C-28.46 -5.45 -12.97 -6.88 0 0 Z " fill="#FCFDFF" transform="translate(639,531)"/>
<path d="M0 0 C1.72 0.01 1.72 0.01 3.48 0.01 C4.73 0.01 5.98 0.02 7.27 0.02 C9.23 0.04 9.23 0.04 11.23 0.06 C12.54 0.06 13.85 0.06 15.2 0.06 C24.95 0.1 24.95 0.1 27.23 1.24 C27.22 2.55 27.21 3.85 27.2 5.2 C27.14 14.61 27.17 23.88 28.23 33.24 C29.45 33.3 30.67 33.36 31.92 33.43 C33.5 33.51 35.09 33.6 36.67 33.68 C37.47 33.72 38.28 33.76 39.1 33.8 C45.12 34.13 45.12 34.13 46.23 35.24 C46.32 36.95 46.34 38.66 46.33 40.37 C46.33 41.92 46.33 41.92 46.32 43.51 C46.31 45.14 46.31 45.14 46.3 46.81 C46.29 47.9 46.29 48.99 46.28 50.12 C46.27 52.83 46.25 55.53 46.23 58.24 C44.41 58.33 44.41 58.33 42.55 58.43 C40.97 58.51 39.38 58.6 37.8 58.68 C36.99 58.72 36.19 58.76 35.37 58.8 C31.48 58.65 31.48 58.65 28.23 60.24 C27.21 67.09 27.11 74.08 27.05 80.99 C27.03 82.04 27.03 82.04 27.01 83.1 C27 88.11 27.73 92.45 29.23 97.24 C31.76 98.51 33.55 98.34 36.36 98.31 C37.27 98.3 38.18 98.29 39.12 98.28 C39.82 98.27 40.51 98.25 41.23 98.24 C43.6 103.23 45.7 108.29 47.55 113.49 C47.89 114.47 48.24 115.44 48.6 116.45 C49.28 119.45 49.07 121.3 48.23 124.24 C37.02 128.21 24.77 130.57 13.23 126.24 C3.89 121.25 -0.46 115.18 -3.77 105.24 C-5 100.46 -4.99 95.69 -5.08 90.79 C-5.1 89.88 -5.12 88.98 -5.15 88.05 C-5.21 85.18 -5.27 82.3 -5.33 79.43 C-5.37 77.48 -5.41 75.53 -5.46 73.57 C-5.57 68.8 -5.67 64.02 -5.77 59.24 C-6.94 59.15 -6.94 59.15 -8.14 59.06 C-9.15 58.98 -10.16 58.89 -11.2 58.81 C-12.21 58.72 -13.22 58.64 -14.26 58.56 C-16.77 58.24 -16.77 58.24 -17.77 57.24 C-18.02 53.77 -17.95 50.29 -17.95 46.81 C-17.97 45.83 -17.98 44.84 -17.99 43.83 C-17.99 42.43 -17.99 42.43 -18 41 C-18 40.13 -18 39.27 -18.01 38.38 C-17.77 36.24 -17.77 36.24 -15.77 34.24 C-13.16 34.05 -13.16 34.05 -10.14 34.12 C-9.14 34.14 -8.13 34.15 -7.1 34.17 C-5.95 34.21 -5.95 34.21 -4.77 34.24 C-4.78 33.28 -4.79 32.33 -4.8 31.34 C-4.83 27.79 -4.86 24.23 -4.88 20.68 C-4.89 19.14 -4.9 17.6 -4.92 16.07 C-4.94 13.86 -4.95 11.65 -4.96 9.44 C-4.97 8.75 -4.98 8.06 -4.99 7.35 C-4.99 5.64 -4.89 3.94 -4.77 2.24 C-2.77 0.24 -2.77 0.24 0 0 Z " fill="#020305" transform="translate(1205.765625,518.757080078125)"/>
<path d="M0 0 C5.64 3.79 8.01 8.97 9.3 15.55 C9.84 21.3 9.03 26.45 6.3 31.55 C2 36.45 -1.71 39.23 -8.25 39.75 C-16.77 39.9 -22.8 38.08 -29.18 32.29 C-32.56 28.42 -33.49 24.16 -34.13 19.18 C-33.34 12.62 -31.4 6.67 -26.45 2.11 C-17.86 -4.36 -9.5 -5.13 0 0 Z " fill="#FCFDFF" transform="translate(200.6953125,580.44921875)"/>
<path d="M0 0 C5.84 3.24 9.85 8.07 11.88 14.44 C12.68 22.31 12.96 29.11 7.88 35.44 C2.29 40.74 -2.84 41.84 -10.34 41.69 C-16.6 41.12 -21.6 38.83 -26.12 34.44 C-30.03 28.85 -31.05 23.15 -30.12 16.44 C-27.3 8.23 -23.35 3.71 -15.75 -0.38 C-9.98 -2.27 -5.51 -2.44 0 0 Z " fill="#FCFDFF" transform="translate(1140.125,578.5625)"/>
<path d="M0 0 C4.49 3.49 7.01 8.3 9.81 13.19 C6.79 14.7 3.7 14.19 0.4 14.07 C-0.33 14.04 -1.06 14.02 -1.81 13.99 C-4.15 13.92 -6.48 13.83 -8.81 13.75 C-10.39 13.7 -11.97 13.64 -13.55 13.59 C-17.43 13.46 -21.31 13.33 -25.19 13.19 C-25.52 12.53 -25.85 11.87 -26.19 11.19 C-24.41 6.7 -21.72 3.07 -17.5 0.69 C-11.7 -1.78 -6.01 -1.53 0 0 Z " fill="#FCFDFF" transform="translate(468.1875,571.8125)"/>
</svg>